<!DOCTYPE svg PUBLIC "-//W3C//DTD SVG 20010904//EN" "http://www.w3.org/TR/2001/REC-SVG-20010904/DTD/svg10.dtd">
<svg version="1.0" xmlns="http://www.w3.org/2000/svg" width="10000px" height="10000px" viewBox="0 0 10000 10000" preserveAspectRatio="xMidYMid meet">
 <g id="layer101" fill="#212121" stroke="none">
  <path d="M4280 9720 c-41 -4 -151 -12 -245 -19 -93 -6 -208 -18 -255 -26 -47 -8 -128 -20 -180 -26 -127 -14 -201 -30 -415 -88 -99 -26 -211 -56 -250 -66 -77 -18 -476 -166 -595 -220 -41 -19 -113 -50 -159 -70 -120 -50 -424 -228 -718 -421 -99 -65 -371 -301 -433 -377 -25 -30 -100 -114 -167 -187 -143 -154 -181 -209 -296 -426 -153 -288 -182 -363 -262 -672 -43 -165 -55 -306 -55 -657 0 -243 2 -266 25 -360 14 -55 25 -110 25 -122 0 -80 205 -491 341 -683 50 -70 363 -402 497 -526 102 -96 102 -96 102 -149 0 -54 -20 -137 -86 -354 -38 -127 -40 -150 -19 -191 19 -37 43 -50 92 -50 74 0 103 53 169 309 18 74 37 138 41 142 8 8 53 -25 248 -184 195 -158 737 -497 938 -585 26 -11 47 -24 47 -28 0 -5 -51 -60 -112 -124 -62 -64 -156 -170 -208 -235 -52 -65 -125 -151 -161 -191 -37 -40 -116 -137 -177 -216 -60 -79 -126 -163 -145 -188 -35 -45 -148 -278 -212 -437 -52 -128 -104 -303 -116 -389 -5 -43 -17 -101 -25 -128 -25 -86 -12 -521 20 -671 93 -434 283 -658 682 -804 243 -89 404 -115 709 -115 208 0 229 2 385 33 288 57 480 126 855 303 309 147 458 249 719 492 142 133 223 228 414 486 187 252 178 243 211 225 32 -17 145 -132 279 -287 190 -217 360 -357 547 -447 245 -119 523 -240 630 -274 120 -38 292 -78 425 -99 119 -18 714 -18 790 0 30 7 105 24 167 37 130 27 306 99 393 159 97 68 203 144 235 168 50 38 232 235 274 296 86 127 148 284 196 497 39 175 41 256 10 415 -69 350 -126 494 -309 774 -182 279 -658 774 -911 947 -96 66 -222 169 -237 194 -5 8 32 38 110 88 64 42 138 94 164 114 25 21 106 85 180 143 273 214 651 617 879 935 136 192 350 728 413 1035 47 235 61 664 27 820 -51 227 -144 432 -329 725 -229 363 -505 668 -777 862 -99 70 -464 273 -560 311 -27 11 -88 40 -135 65 -49 26 -162 70 -265 103 -99 32 -258 86 -354 121 -257 94 -670 190 -936 218 -33 4 -98 13 -145 21 -204 33 -413 44 -1055 54 -707 11 -822 11 -935 0z"/>
</g>
 <g id="layer102" fill="#fff084" stroke="none">
  <path d="M5143 9270 c-13 -5 -23 -15 -23 -22 0 -7 32 -69 71 -138 105 -187 250 -478 313 -628 102 -242 249 -736 313 -1052 31 -153 41 -437 24 -721 -13 -221 -25 -297 -96 -584 -72 -291 -133 -475 -204 -615 -32 -63 -89 -173 -126 -245 -137 -267 -330 -514 -634 -810 -391 -382 -533 -525 -529 -537 3 -7 18 -16 34 -19 44 -10 500 -9 759 1 270 10 320 21 650 140 363 130 465 181 665 331 206 154 324 268 540 524 46 55 120 141 164 190 149 169 291 404 377 626 109 280 158 483 200 824 19 149 16 456 -5 600 -63 435 -110 589 -283 941 -89 180 -97 193 -274 429 -169 226 -350 399 -517 492 -70 40 -340 140 -505 189 -154 44 -254 59 -542 79 -254 17 -339 18 -372 5z"/>
  <path d="M3685 9240 c-49 -4 -119 -13 -155 -19 -227 -42 -380 -77 -485 -111 -66 -21 -184 -57 -263 -79 -78 -22 -172 -53 -209 -70 -38 -16 -104 -44 -148 -61 -220 -87 -756 -417 -945 -582 -47 -41 -130 -110 -185 -153 -126 -100 -245 -219 -317 -315 -159 -216 -225 -333 -289 -510 -20 -58 -52 -143 -69 -190 -18 -47 -48 -139 -67 -205 -43 -146 -51 -273 -34 -555 11 -201 28 -309 65 -417 37 -109 150 -322 206 -388 28 -33 85 -103 127 -155 102 -127 231 -259 325 -331 42 -33 110 -92 150 -132 40 -40 96 -89 123 -107 28 -19 102 -75 166 -125 171 -132 310 -232 468 -337 120 -80 323 -173 441 -203 62 -15 71 -15 170 4 79 15 128 32 200 68 136 69 563 353 743 495 38 30 38 30 -32 103 -79 81 -91 105 -91 175 0 70 31 105 93 105 54 0 78 -19 101 -79 10 -27 35 -59 70 -89 54 -47 54 -47 183 72 315 290 475 483 593 713 39 76 87 166 106 200 88 155 211 472 254 652 63 267 73 350 66 576 -7 233 -19 353 -46 491 -19 93 -148 490 -207 639 -110 275 -117 287 -228 455 -62 94 -139 200 -170 237 -62 73 -175 167 -239 200 -64 33 -261 44 -471 28z m-1177 -2124 c35 -8 124 -44 198 -80 111 -55 150 -81 224 -146 113 -102 155 -178 154 -280 -1 -149 -123 -277 -309 -325 -84 -21 -123 -19 -265 16 -146 36 -204 35 -365 -6 -55 -14 -127 -25 -160 -25 -169 0 -342 97 -407 229 -34 69 -32 177 5 251 77 153 264 307 416 345 142 35 396 45 509 21z m1011 -935 c36 -19 84 -65 114 -111 22 -32 24 -195 3 -243 -15 -37 -82 -99 -138 -128 -47 -24 -213 -27 -257 -5 -72 38 -131 144 -131 236 0 74 114 244 180 268 48 17 181 7 229 -17z m-1976 -60 c42 -11 88 -28 102 -37 41 -27 76 -96 82 -163 5 -52 2 -68 -25 -124 -33 -72 -90 -140 -136 -164 -61 -32 -225 4 -295 64 -57 48 -74 101 -70 212 4 90 4 90 49 137 52 54 129 94 181 94 20 0 70 -9 112 -19z"/>
  <path d="M7410 9020 c0 -11 33 -57 73 -102 152 -173 350 -455 433 -619 26 -52 99 -224 210 -496 41 -100 63 -173 90 -305 36 -173 36 -173 41 -496 7 -432 0 -502 -82 -816 -86 -325 -88 -332 -220 -596 -132 -265 -245 -462 -390 -680 -129 -195 -293 -389 -593 -703 -89 -92 -164 -177 -168 -189 -4 -12 0 -26 9 -36 14 -13 26 -11 122 19 107 34 107 34 229 159 711 735 1123 1464 1251 2215 117 685 -20 1390 -404 2080 -88 159 -315 501 -344 520 -29 18 -192 65 -228 65 -22 0 -29 -5 -29 -20z"/>
  <path d="M7916 8858 c4 -7 20 -31 34 -53 226 -334 430 -777 529 -1147 74 -277 104 -511 104 -798 0 -506 -109 -957 -353 -1455 -172 -351 -425 -724 -714 -1052 -157 -178 -173 -198 -156 -191 263 110 295 127 354 190 82 88 238 282 333 415 248 344 425 686 548 1058 114 343 154 574 162 930 8 334 -16 554 -92 855 -92 365 -241 705 -468 1068 -52 83 -52 83 -166 138 -63 30 -116 54 -118 54 -2 0 -1 -6 3 -12z"/>
  <path d="M8409 8579 c266 -473 422 -949 471 -1443 14 -141 14 -461 0 -601 -43 -438 -157 -825 -365 -1243 -125 -250 -233 -428 -399 -652 -56 -76 -64 -91 -40 -76 56 37 173 131 306 248 82 73 164 206 302 489 255 526 376 1038 376 1594 0 530 -128 1044 -371 1491 -64 117 -86 141 -174 186 -16 9 -56 30 -89 48 -58 33 -58 33 -17 -41z"/>
  <path d="M8939 8165 c104 -243 183 -537 227 -845 21 -148 29 -547 15 -722 -35 -416 -156 -875 -326 -1243 -73 -159 -73 -159 10 -70 144 151 181 203 219 305 78 210 163 505 205 715 48 236 55 319 55 615 1 314 -6 377 -70 675 -59 278 -71 309 -144 389 -21 22 -65 75 -99 116 -33 41 -76 93 -95 115 -35 40 -35 40 3 -50z"/>
  <path d="M9350 7636 c0 -3 7 -38 16 -78 56 -264 79 -644 55 -905 -23 -242 -91 -573 -162 -791 -12 -35 -19 -65 -17 -68 7 -6 131 238 176 346 108 257 132 386 132 717 1 257 -20 405 -75 538 -58 140 -125 269 -125 241z"/>
</g>
 <g id="layer103" fill="#8ee6ff" stroke="none">
  <path d="M7440 3902 c-151 -50 -223 -70 -314 -87 -50 -10 -108 -25 -130 -35 -23 -9 -93 -31 -156 -49 -337 -94 -429 -122 -435 -131 -2 -3 36 -66 86 -139 355 -528 746 -916 1227 -1217 137 -86 162 -142 91 -206 -47 -44 -79 -38 -205 40 -495 308 -957 772 -1308 1315 -68 105 -94 137 -110 137 -12 0 -61 -10 -111 -21 -226 -52 -273 -58 -515 -69 -407 -18 -400 -16 -400 -93 1 -107 53 -365 121 -602 61 -209 225 -545 348 -715 34 -47 84 -116 111 -155 27 -38 62 -87 77 -108 45 -62 360 -366 458 -442 98 -77 260 -177 371 -230 88 -42 380 -137 489 -160 133 -27 270 -43 472 -56 260 -16 367 -10 468 25 64 23 358 137 450 176 25 10 208 173 295 261 36 37 87 103 114 148 54 89 150 307 166 373 5 24 10 130 10 237 0 259 -18 333 -143 589 -34 70 -109 183 -189 287 -111 143 -556 593 -688 695 -46 36 -111 87 -144 113 -179 142 -328 177 -506 119z"/>
  <path d="M3311 3569 c-56 -11 -82 -31 -286 -223 -388 -365 -456 -447 -629 -759 -42 -75 -124 -207 -184 -294 -141 -205 -225 -349 -263 -454 -71 -194 -108 -460 -89 -633 13 -117 53 -265 88 -329 37 -71 136 -174 193 -203 87 -43 311 -93 494 -109 39 -3 138 -13 220 -22 139 -15 161 -15 295 1 280 32 376 56 580 141 340 142 449 209 800 490 262 209 324 270 464 454 57 75 144 181 194 234 49 54 102 121 117 149 35 64 30 85 -61 228 -119 186 -142 232 -204 395 -79 207 -144 434 -165 577 -20 135 -32 168 -75 198 -35 25 -48 26 -312 34 -146 4 -146 4 -222 -220 -91 -266 -160 -435 -265 -644 -212 -421 -487 -785 -820 -1085 -144 -129 -194 -165 -231 -165 -33 0 -78 34 -91 68 -18 48 -1 79 84 153 540 469 866 965 1124 1707 34 101 63 189 63 196 0 8 -38 18 -118 29 -64 9 -169 28 -231 42 -217 49 -371 64 -470 44z"/>
</g>
 <g id="layer104" fill="#fce3fc" stroke="none">
  <path d="M2110 6901 c-68 -22 -201 -89 -256 -129 -50 -37 -104 -116 -104 -153 0 -64 119 -149 209 -149 44 0 129 19 211 47 30 10 85 15 165 16 110 1 128 -2 214 -31 109 -37 142 -39 213 -12 50 19 118 73 118 94 0 31 -24 89 -47 117 -38 45 -174 132 -280 179 -91 40 -91 40 -239 39 -115 0 -162 -4 -204 -18z"/>
</g>

</svg>