<!DOCTYPE svg PUBLIC "-//W3C//DTD SVG 20010904//EN" "http://www.w3.org/TR/2001/REC-SVG-20010904/DTD/svg10.dtd">
<svg version="1.0" xmlns="http://www.w3.org/2000/svg" width="1000px" height="1000px" viewBox="0 0 10000 10000" preserveAspectRatio="xMidYMid meet">
<g id="layer101" fill="#ffffff" stroke="none">
 <path d="M4827 9590 c-124 -32 -207 -128 -226 -262 -9 -70 13 -1088 28 -1239 14 -148 67 -231 180 -283 66 -29 226 -29 292 1 100 45 160 126 178 240 10 67 -13 1117 -28 1254 -15 138 -70 223 -175 270 -56 24 -187 34 -249 19z"/>
 <path d="M7779 8426 c-71 -25 -110 -59 -287 -249 -98 -106 -273 -293 -388 -416 -322 -344 -318 -339 -319 -496 0 -124 23 -183 97 -250 63 -56 131 -80 228 -79 144 1 197 31 339 187 53 58 233 252 400 431 168 180 317 346 333 369 58 87 65 256 15 353 -32 64 -103 127 -164 148 -57 19 -203 21 -254 2z"/>
 <path d="M1722 8150 c-151 -32 -242 -152 -242 -318 0 -146 33 -208 181 -334 47 -40 249 -217 449 -392 421 -369 424 -371 570 -371 114 1 174 23 238 88 98 100 119 273 50 415 -15 33 -79 94 -262 255 -132 116 -331 290 -441 387 -252 222 -271 236 -324 255 -55 19 -163 27 -219 15z"/>
 <path d="M4735 7559 c-765 -73 -1460 -487 -1885 -1124 -511 -764 -571 -1786 -154 -2616 204 -407 553 -787 939 -1022 548 -333 1203 -451 1851 -332 1036 191 1848 1002 2039 2039 190 1038 -230 2059 -1086 2634 -424 285 -935 435 -1464 431 -82 -1 -190 -6 -240 -10z m426 -659 c543 -55 1027 -330 1358 -770 230 -305 348 -615 383 -998 25 -283 -31 -607 -154 -887 -189 -431 -565 -809 -993 -998 -201 -89 -393 -138 -623 -159 -283 -25 -607 31 -887 154 -434 190 -813 569 -1003 1003 -213 486 -211 1022 5 1510 189 428 567 804 998 993 292 128 617 182 916 152z"/>
 <path d="M668 5350 c-78 -12 -119 -31 -171 -79 -70 -65 -92 -125 -92 -251 1 -94 3 -110 27 -156 34 -66 105 -128 171 -151 48 -17 102 -18 717 -18 665 0 665 0 734 34 103 50 151 128 163 261 11 124 -40 246 -125 303 -83 54 -96 56 -757 61 -335 2 -636 1 -667 -4z"/>
 <path d="M7983 5301 c-139 -48 -214 -179 -199 -345 12 -125 76 -221 180 -268 51 -23 51 -23 656 -29 333 -3 642 -2 688 3 133 13 215 67 264 173 19 42 23 67 23 155 0 91 -3 112 -24 154 -44 89 -115 143 -219 165 -36 7 -254 11 -685 11 -580 -1 -636 -2 -684 -19z"/>
 <path d="M7235 3270 c-75 -24 -131 -71 -170 -141 -28 -51 -30 -60 -30 -169 0 -181 -8 -170 399 -526 604 -528 599 -523 656 -546 71 -27 193 -29 267 -4 67 22 135 83 168 150 50 102 43 257 -14 348 -40 62 -927 839 -998 874 -73 36 -193 42 -278 14z"/>
 <path d="M2735 3023 c-68 -22 -104 -58 -782 -790 -88 -96 -161 -183 -174 -211 -34 -70 -39 -216 -10 -292 56 -150 229 -230 400 -186 35 9 79 26 97 37 33 20 178 171 519 539 99 107 220 237 269 288 120 128 141 174 141 307 0 89 -4 106 -28 157 -30 62 -74 106 -140 140 -57 30 -218 36 -292 11z"/>
 <path d="M5017 2210 c-124 -32 -207 -128 -226 -262 -9 -70 13 -1088 28 -1239 14 -148 67 -231 180 -283 66 -29 226 -29 292 1 100 45 160 126 178 240 10 67 -13 1117 -28 1254 -15 138 -70 223 -175 270 -56 24 -187 34 -249 19z"/>
 </g>

</svg>