<!DOCTYPE svg PUBLIC "-//W3C//DTD SVG 20010904//EN" "http://www.w3.org/TR/2001/REC-SVG-20010904/DTD/svg10.dtd">
<svg version="1.0" xmlns="http://www.w3.org/2000/svg" width="10000px" height="10000px" viewBox="0 0 10000 10000" preserveAspectRatio="xMidYMid meet">
 <g id="layer101" fill="#ffffff" stroke="none">
  <path d="M4556.1226 9988.7754 c-56.1224 -5.102 -157.1429 -16.3265 -224.4898 -25.5102 -67.3469 -9.1837 -172.449 -20.4082 -234.6939 -24.4898 -301.0204 -21.4286 -908.1633 -216.3265 -1333.6735 -429.5918 -346.9388 -173.4694 -695.9183 -402.0408 -1008.1633 -661.2245 -155.102 -127.551 -481.6327 -454.0816 -608.1633 -608.1633 -425.5102 -515.3061 -731.6326 -1068.3673 -930.6122 -1678.5714 -92.8571 -285.7143 -155.102 -546.9388 -155.102 -654.0816 0 -33.6735 -7.1429 -107.1429 -15.3061 -165.3061 -62.2449 -410.2041 -62.2449 -1073.4694 0 -1483.6735 8.1633 -58.1633 15.3061 -131.6326 15.3061 -165.3061 0 -107.1429 62.2449 -368.3673 155.102 -654.0816 200 -614.2857 504.0816 -1162.2449 934.6938 -1683.6735 127.551 -153.0612 454.0816 -480.6122 609.1837 -608.1633 495.9184 -409.1837 1036.7347 -714.2857 1612.2449 -909.1837 311.2245 -105.102 551.0204 -163.2653 724.4898 -176.5306 67.3469 -5.102 173.4694 -16.3265 234.6939 -24.4898 206.1225 -27.551 371.4286 -36.7347 668.3674 -36.7347 296.9388 0 462.2449 9.1837 668.3674 36.7347 62.2449 8.1633 167.3469 19.3878 234.6939 24.4898 181.6326 13.2653 414.2857 71.4286 745.9183 184.6939 568.3674 193.8775 1097.9592 493.8775 1590.8163 901.0204 157.1429 129.5918 483.6735 456.1224 613.2653 613.2653 409.1837 495.9184 714.2857 1037.7551 909.1837 1612.2449 105.102 311.2245 163.2653 551.0204 176.5306 724.4898 5.102 67.3469 16.3265 173.4694 24.4898 234.6939 27.551 206.1225 36.7347 371.4286 36.7347 668.3674 0 296.9388 -9.1837 462.2449 -36.7347 668.3674 -8.1633 62.2449 -19.3878 167.3469 -24.4898 234.6939 -13.2653 173.4694 -71.4286 413.2653 -176.5306 724.4898 -194.898 576.5306 -503.0612 1121.4286 -914.2857 1617.3469 -124.4898 151.0204 -452.0408 478.5714 -603.0612 603.0612 -516.3265 427.551 -1071.4286 736.7347 -1683.6735 935.7143 -296.9388 96.9388 -493.8775 142.8571 -658.1633 155.102 -61.2245 4.0816 -167.3469 15.3061 -234.6939 24.4898 -67.3469 8.1633 -177.551 20.4082 -244.8979 26.5306 -144.898 12.2449 -721.4286 11.2245 -867.3469 -1.0204z m1973.4694 -2553.0613 c264.2857 -77.551 476.5306 -212.2449 533.6735 -339.7959 18.3673 -43.8776 20.4082 -60.2041 13.2653 -156.1225 -14.2857 -219.3878 -57.1429 -390.8163 -142.8571 -570.4081 -217.3469 -452.0408 -601.0204 -759.1837 -1096.9387 -875.5102 -68.3673 -16.3265 -153.0612 -18.3673 -831.6326 -21.4286 -659.1837 -4.0816 -767.3469 -2.0408 -855.1021 12.2449 -334.6939 55.102 -613.2653 201.0204 -859.1837 450 -265.3061 267.3469 -415.3061 590.8163 -443.8775 957.1428 -15.3061 188.7755 -11.2245 203.0612 94.898 307.1429 70.4082 69.3878 102.0408 90.8163 201.0204 139.7959 126.5306 62.2449 261.2245 107.1429 367.3469 120.4082 36.7347 4.0816 709.1837 7.1429 1494.8979 6.1224 1428.5714 -2.0408 1428.5714 -2.0408 1524.4897 -29.5918z m-1265.3062 -2420.4082 c363.2653 -93.8775 662.2449 -336.7347 830.6122 -673.4694 83.6735 -169.3878 119.3878 -332.653 119.3878 -550 0 -161.2245 -9.1837 -229.5918 -46.9388 -359.1837 -52.0408 -181.6326 -148.9796 -347.9592 -283.6735 -490.8163 -230.6122 -244.8979 -492.8571 -374.4898 -809.1837 -401.0204 -247.9592 -20.4082 -452.0408 18.3673 -671.4286 127.551 -412.2449 203.0612 -676.5306 605.1021 -695.9183 1056.1224 -10.2041 235.7143 24.4898 410.2041 118.3673 608.1633 65.3061 135.7143 119.3878 214.2857 225.5102 324.4898 152.0408 159.1837 322.449 267.3469 522.449 333.6735 143.8775 46.9388 243.8775 60.2041 426.5306 56.1224 129.5918 -4.0816 177.551 -9.1837 264.2857 -31.6327z"/>
</g>

</svg>