<!DOCTYPE svg PUBLIC "-//W3C//DTD SVG 20010904//EN" "http://www.w3.org/TR/2001/REC-SVG-20010904/DTD/svg10.dtd">
<svg version="1.0" xmlns="http://www.w3.org/2000/svg" width="1000px" height="1000px" viewBox="0 0 10000 10000" preserveAspectRatio="xMidYMid meet">
<g id="layer101" fill="#ffffff" stroke="none">
 <path d="M5155 9660 c-587 -47 -1089 -164 -1515 -352 -287 -127 -594 -291 -790 -421 -479 -320 -943 -788 -1277 -1287 -721 -1079 -951 -2484 -623 -3800 360 -1439 1386 -2608 2760 -3145 657 -257 1531 -395 1791 -284 61 26 124 94 141 151 8 27 13 99 13 198 0 148 -1 158 -27 213 -15 32 -67 113 -116 180 -114 156 -173 245 -255 385 -284 479 -482 1078 -528 1592 -15 174 -6 683 15 830 67 465 231 956 453 1355 203 363 458 684 798 1004 468 440 1073 769 1710 930 283 71 515 99 910 111 326 9 368 15 442 69 46 33 99 109 113 160 31 121 19 299 -27 383 -40 74 -170 225 -333 388 -573 575 -1329 1005 -2105 1199 -269 67 -463 100 -775 131 -142 15 -639 21 -775 10z m773 -804 c259 -35 446 -76 677 -147 339 -106 708 -282 1004 -481 139 -94 223 -160 215 -168 -5 -5 -88 -24 -184 -44 -603 -123 -1186 -364 -1681 -696 -296 -199 -629 -493 -888 -785 -583 -658 -983 -1534 -1105 -2425 -38 -274 -47 -925 -16 -1220 45 -439 188 -962 387 -1414 41 -94 75 -175 76 -181 11 -65 -601 192 -918 385 -373 228 -716 523 -993 855 -482 577 -807 1326 -882 2030 -18 169 -24 616 -11 760 72 769 388 1520 897 2129 127 151 414 434 558 548 387 309 784 527 1236 679 280 94 542 152 805 178 61 6 126 13 145 15 82 9 571 -4 678 -18z"/>
 </g>

</svg>