<!DOCTYPE svg PUBLIC "-//W3C//DTD SVG 20010904//EN" "http://www.w3.org/TR/2001/REC-SVG-20010904/DTD/svg10.dtd">
<svg version="1.0" xmlns="http://www.w3.org/2000/svg" width="225px" height="225px" viewBox="0 0 2250 2250" preserveAspectRatio="xMidYMid meet">
<g id="layer101" fill="#ffffff" stroke="none">
 <path d="M21 2004 c-21 -26 -21 -33 -21 -748 0 -396 3 -731 6 -744 10 -37 53 -52 149 -52 l85 0 0 -98 c0 -133 3 -136 157 -140 279 -9 496 62 664 216 l66 61 44 -45 c152 -156 393 -239 669 -232 169 4 170 5 170 140 l0 98 85 0 c94 0 128 11 144 47 8 17 11 238 11 747 0 717 0 724 -21 750 -25 32 -46 32 -142 6 -302 -85 -645 -90 -850 -14 -91 34 -133 34 -227 0 -209 -76 -545 -71 -847 14 -96 26 -117 26 -142 -6z m266 -173 c172 -33 335 -43 475 -31 66 6 123 9 125 6 8 -7 -144 -75 -202 -90 -98 -25 -234 -38 -321 -31 -135 12 -124 62 -124 -555 l0 -520 -45 0 -45 0 0 626 c0 546 2 625 15 621 8 -4 63 -15 122 -26z m1813 -596 l0 -625 -45 0 -45 0 0 520 c0 617 11 567 -124 555 -87 -7 -223 6 -321 31 -58 15 -210 83 -202 91 2 2 58 -1 123 -7 144 -13 326 0 489 34 61 13 113 24 118 25 4 0 7 -280 7 -624z m-1077 -618 c-102 -147 -308 -241 -543 -249 l-95 -3 -3 588 -2 587 84 0 c179 0 369 54 503 144 l78 52 3 -540 2 -540 -27 -39z m423 984 c106 -39 231 -61 340 -61 l84 0 0 -585 c0 -499 -2 -586 -14 -591 -21 -8 -218 13 -289 32 -93 23 -198 79 -265 140 -111 100 -102 42 -102 662 l0 541 80 -54 c44 -29 119 -67 166 -84z"/>
 </g>

</svg>