<!DOCTYPE svg PUBLIC "-//W3C//DTD SVG 20010904//EN" "http://www.w3.org/TR/2001/REC-SVG-20010904/DTD/svg10.dtd">
<svg version="1.0" xmlns="http://www.w3.org/2000/svg" width="1200px" height="800px" viewBox="0 0 12000 8000" preserveAspectRatio="xMidYMid meet">
<g id="layer101" fill="#ffffff" stroke="none">
 <path d="M3425 5527 c-59 -17 -81 -33 -95 -67 -17 -42 -6 -96 29 -140 30 -38 30 -38 5 -60 -31 -30 -32 -78 -2 -129 21 -37 21 -39 5 -74 -22 -45 -21 -102 2 -152 40 -88 100 -108 296 -97 140 7 140 7 140 37 0 28 -3 30 -38 33 -32 3 -37 6 -31 20 15 34 16 118 1 154 -34 81 -164 131 -254 97 -23 -8 -30 -7 -40 7 -17 23 -16 28 5 54 16 20 31 23 133 30 162 10 220 43 222 125 2 78 -55 144 -143 164 -59 14 -184 12 -235 -2z m209 -61 c40 -17 66 -51 66 -87 0 -43 -30 -60 -126 -71 -86 -9 -87 -9 -115 18 -56 53 -44 123 24 143 48 14 114 13 151 -3z m-13 -405 c25 -25 29 -37 29 -81 0 -44 -4 -56 -29 -81 -36 -36 -95 -40 -134 -9 -31 25 -44 90 -27 135 26 70 109 88 161 36z"/>
 <path d="M2870 5328 c-75 -38 -101 -124 -61 -198 27 -52 92 -81 206 -93 95 -10 95 -10 95 -48 0 -55 -15 -86 -51 -105 -40 -20 -110 -14 -168 15 -56 29 -71 27 -71 -9 0 -39 39 -64 127 -80 116 -22 210 4 248 70 18 32 20 52 20 245 0 210 0 210 -42 213 -40 3 -43 1 -43 -22 0 -29 -12 -33 -30 -11 -16 19 -102 45 -150 45 -20 0 -56 -10 -80 -22z m204 -83 c35 -26 36 -30 36 -91 0 -64 0 -64 -47 -64 -107 0 -163 35 -163 101 0 59 37 93 95 87 25 -3 57 -16 79 -33z"/>
 <path d="M4046 5339 c-94 -22 -149 -89 -164 -197 -22 -159 32 -280 144 -321 99 -38 202 -20 267 45 55 55 79 191 38 214 -11 6 -91 10 -186 10 -167 0 -167 0 -160 43 21 125 110 173 247 133 79 -23 98 -21 98 8 0 33 -18 44 -96 61 -77 16 -130 17 -188 4z m199 -346 c-10 -55 -32 -91 -65 -108 -35 -18 -86 -19 -120 -2 -35 18 -70 74 -70 113 0 34 0 34 131 34 131 0 131 0 124 -37z"/>
 <path d="M4772 5336 c-57 -19 -72 -33 -72 -68 0 -39 17 -42 74 -13 93 47 195 21 196 -51 0 -36 -35 -68 -109 -99 -86 -36 -126 -70 -139 -119 -21 -73 19 -144 95 -170 58 -20 105 -20 171 -1 41 13 53 21 58 41 11 41 -9 51 -63 31 -99 -35 -163 -15 -163 52 0 47 12 59 120 109 110 51 125 68 125 142 0 70 -22 105 -81 134 -50 24 -156 30 -212 12z"/>
 <path d="M5312 5333 c-75 -25 -116 -69 -137 -148 -36 -132 1 -282 83 -339 55 -38 137 -53 208 -38 101 21 154 83 169 198 11 82 6 84 -196 84 -169 0 -169 0 -169 38 0 50 38 113 80 134 46 24 117 23 192 -3 70 -23 88 -16 72 27 -11 33 -66 51 -174 59 -56 4 -89 1 -128 -12z m218 -337 c0 -39 -35 -95 -70 -113 -34 -17 -85 -16 -120 2 -33 17 -70 80 -70 120 0 25 0 25 130 25 130 0 130 0 130 -34z"/>
 <path d="M6817 5336 c-68 -19 -98 -43 -130 -108 -25 -49 -28 -67 -28 -146 0 -144 44 -223 148 -262 170 -63 323 36 323 210 0 60 2 60 -208 60 -164 0 -164 0 -157 43 9 56 30 98 61 120 36 27 119 33 186 13 79 -23 98 -21 98 8 0 29 -12 39 -68 55 -68 19 -171 23 -225 7z m203 -341 c0 -159 -230 -169 -247 -11 -6 46 -6 46 121 46 126 0 126 0 126 -35z"/>
 <path d="M8031 5339 c-56 -17 -79 -38 -108 -97 -25 -52 -28 -67 -27 -162 1 -120 21 -177 80 -229 71 -63 198 -66 264 -6 19 17 19 14 22 -126 3 -144 3 -144 56 -147 52 -3 52 -3 50 380 -3 383 -3 383 -48 383 -41 0 -45 -2 -48 -27 -3 -26 -3 -26 -51 3 -54 34 -133 45 -190 28z m123 -69 c7 0 34 -18 60 -41 46 -41 46 -41 46 -153 0 -112 0 -112 -32 -143 -45 -41 -76 -56 -117 -55 -46 2 -78 34 -96 96 -45 150 22 326 113 300 8 -2 19 -4 26 -4z"/>
 <path d="M8642 5331 c-104 -36 -145 -105 -145 -248 0 -80 4 -100 27 -148 15 -30 43 -67 61 -81 100 -76 273 -69 356 15 75 75 90 232 35 346 -33 66 -76 102 -148 121 -70 18 -122 17 -186 -5z m162 -65 c18 -8 46 -31 62 -52 28 -36 29 -42 29 -140 0 -99 -1 -103 -31 -141 -37 -45 -89 -66 -145 -57 -85 14 -133 124 -111 252 12 75 34 110 83 134 41 22 69 22 113 4z"/>
 <path d="M1642 5078 c3 -263 3 -263 51 -266 47 -3 47 -3 45 260 -3 263 -3 263 -51 266 -47 3 -47 3 -45 -260z"/>
 <path d="M1905 5328 c-3 -7 -4 -126 -3 -263 3 -250 3 -250 48 -250 41 0 45 2 50 28 5 29 5 29 32 8 87 -69 198 -66 259 6 25 30 25 30 60 2 124 -103 282 -61 310 82 9 51 12 360 3 383 -4 12 -20 16 -55 16 -49 0 -49 0 -49 -185 0 -240 -13 -275 -102 -275 -27 0 -43 9 -76 43 -42 42 -42 42 -44 227 -3 185 -3 185 -55 188 -53 3 -53 3 -53 -183 0 -197 -8 -243 -48 -264 -42 -22 -80 -13 -127 30 -45 41 -45 41 -47 228 -3 186 -3 186 -51 189 -32 2 -49 -1 -52 -10z"/>
 <path d="M5770 5076 c0 -266 0 -266 45 -266 43 0 45 1 45 30 0 30 0 30 46 -5 46 -35 86 -43 142 -29 18 5 22 13 22 46 0 40 0 40 -54 34 -53 -7 -53 -7 -99 44 -47 52 -47 52 -49 228 -3 177 -3 177 -50 180 -48 3 -48 3 -48 -262z"/>
 <path d="M6290 5320 c-9 -17 -90 -238 -159 -434 -11 -32 -18 -63 -15 -67 3 -5 27 -9 53 -9 49 0 49 0 69 58 44 119 101 288 107 315 4 15 10 29 14 31 4 3 33 -73 65 -167 87 -257 77 -239 133 -235 27 2 47 8 46 13 -2 10 -34 103 -118 340 -61 173 -62 175 -130 175 -44 0 -56 -4 -65 -20z"/>
 <path d="M7262 5078 c3 -263 3 -263 48 -263 41 0 45 2 50 29 5 28 5 28 25 6 42 -46 103 -62 159 -40 21 8 26 16 26 46 0 36 0 36 -56 29 -56 -7 -56 -7 -100 40 -44 47 -44 47 -46 229 -3 181 -3 181 -56 184 -52 3 -52 3 -50 -260z"/>
 <path d="M9220 5303 c-5 -21 -41 -137 -79 -258 -37 -121 -66 -223 -64 -227 2 -5 26 -8 53 -8 48 0 48 0 68 63 11 34 37 121 58 192 20 72 40 133 44 137 3 5 25 -67 49 -160 24 -92 50 -182 57 -200 13 -32 16 -33 60 -30 41 3 48 7 55 28 4 14 19 66 33 115 14 50 36 124 48 165 12 41 24 78 28 82 3 5 31 -81 62 -190 55 -197 55 -197 108 -200 62 -4 63 -26 -9 208 -79 252 -93 294 -103 308 -6 7 -33 12 -64 12 -41 0 -55 -4 -62 -17 -5 -10 -26 -79 -47 -153 -57 -204 -53 -200 -82 -100 -13 47 -33 121 -44 165 -12 44 -26 86 -31 93 -6 7 -34 12 -69 12 -58 0 -58 0 -69 -37z"/>
 <path d="M9955 5328 c-3 -7 -4 -126 -3 -263 3 -250 3 -250 51 -253 47 -3 47 -3 47 34 0 38 0 38 28 11 33 -31 100 -57 151 -57 52 0 122 38 146 80 18 32 20 52 20 245 0 210 0 210 -47 213 -46 3 -46 3 -50 -191 -3 -194 -3 -194 -31 -230 -25 -33 -33 -37 -71 -37 -36 0 -51 7 -89 41 -47 40 -47 40 -49 227 -3 187 -3 187 -51 190 -32 2 -49 -1 -52 -10z"/>
 <path d="M1637 4693 c-12 -11 -8 -68 5 -81 13 -13 66 -16 92 -6 19 7 22 64 4 82 -13 13 -90 17 -101 5z"/>
 <path d="M4467 4334 c-102 -33 -119 -50 -115 -116 4 -65 23 -80 70 -56 101 53 140 62 258 63 93 0 122 -4 150 -19 69 -36 103 -69 127 -123 22 -47 25 -65 21 -143 -3 -79 -6 -93 -33 -132 -62 -90 -206 -129 -391 -107 -83 9 -107 9 -119 -1 -13 -11 -15 -55 -15 -309 0 -169 4 -302 10 -311 8 -13 58 -15 327 -18 292 -3 319 -1 330 14 16 21 17 78 3 105 -10 18 -24 19 -250 19 l-240 0 0 185 0 185 113 0 c139 0 214 13 287 50 67 34 114 84 148 159 61 133 31 322 -69 434 -97 109 -203 147 -403 147 -112 -1 -142 -5 -209 -26z"/>
 <path d="M5623 4339 c-62 -24 -141 -92 -176 -152 -73 -125 -104 -393 -76 -659 22 -205 94 -349 213 -425 123 -79 356 -81 478 -4 47 30 105 95 131 147 56 109 85 363 67 576 -24 294 -113 449 -293 516 -80 30 -267 31 -344 1z m282 -128 c53 -25 89 -64 119 -132 33 -74 45 -147 52 -304 7 -159 -14 -352 -47 -440 -55 -141 -193 -199 -320 -135 -120 62 -165 219 -156 545 6 203 19 280 61 363 28 55 58 85 106 106 48 21 136 20 185 -3z"/>
 <path d="M6659 4337 c-71 -30 -103 -55 -150 -117 -73 -97 -109 -266 -109 -504 0 -306 68 -507 204 -600 165 -114 448 -94 566 40 42 49 84 136 106 224 28 110 28 500 0 610 -43 170 -116 274 -234 332 -63 32 -72 33 -197 36 -118 2 -135 0 -186 -21z m292 -130 c96 -51 142 -157 159 -369 20 -240 -14 -477 -80 -574 -51 -74 -158 -108 -245 -79 -144 48 -195 185 -195 518 0 314 43 446 165 510 47 25 143 22 196 -6z"/>
 </g>

</svg>