<?xml version="1.0" encoding="UTF-8" standalone="no"?>
<svg
   xmlns:dc="http://purl.org/dc/elements/1.1/"
   xmlns:cc="http://creativecommons.org/ns#"
   xmlns:rdf="http://www.w3.org/1999/02/22-rdf-syntax-ns#"
   xmlns:svg="http://www.w3.org/2000/svg"
   xmlns="http://www.w3.org/2000/svg"
   xmlns:sodipodi="http://sodipodi.sourceforge.net/DTD/sodipodi-0.dtd"
   xmlns:inkscape="http://www.inkscape.org/namespaces/inkscape"
   version="1.1"
   id="svg907"
   width="450"
   height="450"
   viewBox="0 0 450 450"
   sodipodi:docname="folder.svg"
   inkscape:version="1.0.2-2 (e86c870879, 2021-01-15)">
  <metadata
     id="metadata913">
    <rdf:RDF>
      <cc:Work
         rdf:about="">
        <dc:format>image/svg+xml</dc:format>
        <dc:type
           rdf:resource="http://purl.org/dc/dcmitype/StillImage" />
        <dc:title></dc:title>
      </cc:Work>
    </rdf:RDF>
  </metadata>
  <defs
     id="defs911">
    <filter
       style="color-interpolation-filters:sRGB;"
       inkscape:menu-tooltip="Fades hue progressively to white"
       inkscape:menu="Color"
       inkscape:label="Hue to White"
       id="filter957">
      <feColorMatrix
         values="1 0 0 0 0 1 0 0 0 0 1 0 0 0 0 0 0 0 0 1 "
         type="matrix"
         result="r"
         in="SourceGraphic"
         id="feColorMatrix929" />
      <feColorMatrix
         values="0 1 0 0 0 0 1 0 0 0 0 1 0 0 0 0 0 0 0 1 "
         type="matrix"
         result="g"
         in="SourceGraphic"
         id="feColorMatrix931" />
      <feColorMatrix
         values="0 0 1 0 0 0 0 1 0 0 0 0 1 0 0 0 0 0 0 1 "
         type="matrix"
         result="b"
         in="SourceGraphic"
         id="feColorMatrix933" />
      <feBlend
         result="minrg"
         in="r"
         mode="darken"
         in2="g"
         id="feBlend935" />
      <feBlend
         result="p"
         in="minrg"
         mode="darken"
         in2="b"
         id="feBlend937" />
      <feBlend
         result="maxrg"
         in="r"
         mode="lighten"
         in2="g"
         id="feBlend939" />
      <feBlend
         result="q"
         in="maxrg"
         mode="lighten"
         in2="b"
         id="feBlend941" />
      <feComponentTransfer
         result="q2"
         in="q"
         id="feComponentTransfer945">
        <feFuncR
           slope="0"
           type="linear"
           id="feFuncR943" />
      </feComponentTransfer>
      <feBlend
         result="pq"
         in="p"
         mode="lighten"
         in2="q2"
         id="feBlend947" />
      <feColorMatrix
         values="-1 1 0 0 0 -1 1 0 0 0 -1 1 0 0 0 0 0 0 0 1 "
         type="matrix"
         result="qminp"
         in="pq"
         id="feColorMatrix949" />
      <feComposite
         k3="1"
         operator="arithmetic"
         result="qminpc"
         in="qminp"
         in2="qminp"
         id="feComposite951" />
      <feBlend
         result="result2"
         in2="SourceGraphic"
         mode="screen"
         id="feBlend953" />
      <feComposite
         operator="in"
         in="result2"
         in2="SourceGraphic"
         result="result1"
         id="feComposite955" />
    </filter>
  </defs>
  <sodipodi:namedview
     pagecolor="#ffff00"
     bordercolor="#666666"
     borderopacity="1"
     objecttolerance="10"
     gridtolerance="10"
     guidetolerance="10"
     inkscape:pageopacity="0"
     inkscape:pageshadow="2"
     inkscape:window-width="1600"
     inkscape:window-height="837"
     id="namedview909"
     showgrid="false"
     inkscape:zoom="1.4142136"
     inkscape:cx="335.33463"
     inkscape:cy="217.84047"
     inkscape:window-x="-8"
     inkscape:window-y="93"
     inkscape:window-maximized="1"
     inkscape:current-layer="g915" />
  <g
     inkscape:groupmode="layer"
     inkscape:label="Image"
     id="g915">
    <path
       id="path923"
       style="fill:#ffffff"
       d="m 139.88867,136.95898 c -12.9933,0.0228 -19.11923,0.32443 -20.64648,0.95704 -6.07191,2.51506 -5.76377,-2.0911 -5.75977,85.87304 0.004,78.28922 0.0581,80.61839 1.96875,83.75196 2.16693,3.55396 3.69224,4.11135 12.52735,4.58007 3.3,0.17508 43.73278,0.40186 89.8496,0.50586 98.72483,0.22263 88.71927,5.50399 93.20313,-16.53906 3.4726,-17.07163 18.62477,-85.907 22.00977,-96.64258 3.21355,-10.19182 2.567,-14.26166 -2.96094,-18.6289 -1.39283,-1.10038 -5.52223,-1.63321 -15.5,-2 -13.60134,-0.5 -13.60156,-0.5 -14.10156,-11.5 -0.275,-6.05 -0.86513,-11.56445 -1.3125,-12.25586 -0.44738,-0.69141 -2.24738,-2.00516 -4,-2.91797 -2.79363,-1.45501 -9.22638,-1.73089 -52.16993,-2.24219 -48.98404,-0.58322 -48.98435,-0.58278 -49.60547,-4.41016 -0.34162,-2.10506 -1.59869,-4.80506 -2.79296,-6 -2.12914,-2.13035 -2.8163,-2.17898 -35.3418,-2.46289 -5.94105,-0.0519 -11.03609,-0.076 -15.36719,-0.0684 z m 14.2461,19.85743 c 19.80157,3.5e-4 20.34375,0.0579 20.34375,2.05078 0,3.00985 2.69359,7.70259 5.26171,9.16992 1.70194,0.97242 14.12247,1.39934 51.73829,1.7793 49.5,0.5 49.50072,0.49964 49.8125,4.27343 0.19411,2.34943 0.25037,3.23706 -14.75782,3.55274 -0.13357,0.002 -0.26707,0.004 -0.40429,0.006 -2.3262,0.0467 -5.31263,0.0721 -8.39844,0.0957 -2.20111,0.0153 -4.72877,0.0288 -7.51563,0.0391 -8.14147,0.0241 -17.91431,0.0184 -30.92382,0.002 -62.31178,-0.0788 -62.31229,-0.0783 -64.45704,2.41015 -1.17961,1.36864 -4.6716,10.05556 -7.75976,19.30469 -10.48344,31.39815 -12.85348,40.17484 -13.38477,25.70117 -0.16819,-9.81789 -0.17308,-35.79055 -0.0176,-47.26367 0.55641,-19.08824 3.30198,-20.92669 16.04101,-21.0957 1.27285,-0.0155 2.90501,-0.0183 4.42188,-0.0254 z m 41.85937,40.99804 c 40.84552,0.0359 113.21575,0.69816 115.01563,1.27735 0.0686,0.0825 0.0965,0.2318 0.11328,0.40234 -0.17253,2.68502 -3.94699,19.60191 -8.86328,39.61328 -5.2981,21.56555 -10.37236,42.69649 -11.27539,46.95899 -1.22374,5.77625 -1.5389,7.24556 -3.97071,7.51953 -0.0404,0.004 -0.1037,0.008 -0.14648,0.0117 -0.81176,0.0747 -1.83795,0.0352 -3.20703,-0.0234 -3.12498,-0.13376 -37.56524,-0.36286 -76.53516,-0.50781 -58.52494,-0.2177 -70.01609,-0.45088 -70.31641,-1.55664 0.0174,-0.0884 0.0393,-0.19096 0.1211,-0.46289 1.51318,-4.05374 31.54883,-92.54061 31.54883,-92.94922 0,-0.17608 7.56963,-0.25397 18.23437,-0.27735 2.94512,-0.004 5.88554,-0.006 9.28125,-0.006 z" />
  </g>
</svg>
