<!DOCTYPE svg PUBLIC "-//W3C//DTD SVG 20010904//EN" "http://www.w3.org/TR/2001/REC-SVG-20010904/DTD/svg10.dtd">
<svg version="1.0" xmlns="http://www.w3.org/2000/svg" width="256px" height="256px" viewBox="0 0 2560 2560" preserveAspectRatio="xMidYMid meet">
<g id="layer101" fill="#ffffff" stroke="none">
 <path d="M1170 2429 c-263 -22 -500 -133 -696 -324 -464 -454 -469 -1183 -10 -1641 454 -454 1179 -454 1632 0 396 395 451 992 137 1465 -181 271 -517 473 -827 496 -39 3 -87 7 -106 9 -19 2 -78 -1 -130 -5z m315 -128 c490 -102 835 -523 835 -1021 0 -500 -344 -919 -840 -1022 -125 -26 -345 -21 -463 10 -188 51 -333 136 -477 281 -202 202 -300 440 -300 726 0 501 340 921 830 1026 116 24 297 24 415 0z"/>
 <path d="M1191 1993 c-18 -9 -45 -34 -60 -57 l-26 -40 0 -295 c0 -291 0 -297 23 -333 80 -128 277 -104 320 39 15 51 17 521 2 575 -13 44 -52 93 -91 113 -37 20 -126 19 -168 -2z"/>
 <path d="M1192 933 c-40 -19 -66 -54 -82 -110 -27 -88 31 -187 124 -213 127 -35 250 83 217 208 -13 48 -51 96 -92 117 -37 20 -126 19 -167 -2z"/>
 </g>

</svg>