<?xml version="1.0" encoding="utf-8"?>
<!DOCTYPE svg PUBLIC "-//W3C//DTD SVG 20010904//EN" "http://www.w3.org/TR/2001/REC-SVG-20010904/DTD/svg10.dtd">
<svg version="1.0" xmlns="http://www.w3.org/2000/svg" width="225px" height="225px" viewBox="0 0 225 225" preserveAspectRatio="xMidYMid meet">
 <g fill="#ffffff">
  <path d="M56.4 217.5 c-6.7 -4 -9.4 -12.8 -6 -19.3 0.8 -1.5 20.2 -21.4 43 -44.2 l41.6 -41.5 -41.9 -42 c-23 -23.1 -42.4 -43 -43 -44.2 -1.8 -3.6 -1.3 -9.7 1.2 -13.4 4.8 -7.1 11.9 -9.6 19 -6.5 1.8 0.8 24 22.3 51.8 50.2 41.8 42 48.8 49.4 49.3 52.5 1.5 8.5 2.8 6.9 -49.3 59.3 -27.8 27.9 -50 49.4 -51.8 50.2 -4.7 2.1 -9.3 1.7 -13.9 -1.1z"/>
 </g>
</svg>