<?xml version="1.0" encoding="utf-8"?>
<!DOCTYPE svg PUBLIC "-//W3C//DTD SVG 20010904//EN" "http://www.w3.org/TR/2001/REC-SVG-20010904/DTD/svg10.dtd">
<svg version="1.0" xmlns="http://www.w3.org/2000/svg" width="225px" height="225px" viewBox="0 0 225 225" preserveAspectRatio="xMidYMid meet">
 <g fill="#ffffff">
  <path d="M154.5 218.6 c-1.6 -0.8 -24.9 -23.4 -51.6 -50.2 -41.8 -42 -48.8 -49.4 -49.3 -52.5 -1.5 -8.5 -2.8 -6.9 49.3 -59.3 27.8 -27.9 50 -49.4 51.8 -50.2 7.1 -3.1 14.2 -0.6 19 6.5 2.7 3.9 3 9.9 0.9 13.9 -0.8 1.5 -20.2 21.4 -43 44.2 l-41.6 41.5 41.9 42 c23 23.1 42.4 43 43 44.2 0.6 1.2 1.1 3.8 1.1 5.8 0 11 -11.6 18.5 -21.5 14.1z"/>
 </g>
</svg>