<?xml version="1.0" standalone="no"?>
<!DOCTYPE svg PUBLIC "-//W3C//DTD SVG 20010904//EN"
 "http://www.w3.org/TR/2001/REC-SVG-20010904/DTD/svg10.dtd">
<svg version="1.0" xmlns="http://www.w3.org/2000/svg"
 width="700.000000pt" height="700.000000pt" viewBox="0 0 700.000000 700.000000"
 preserveAspectRatio="xMidYMid meet">
<metadata>
Created by potrace 1.11, written by Peter Selinger 2001-2013
</metadata>
<g transform="translate(0.000000,700.000000) scale(0.100000,-0.100000)"
fill="#000000" stroke="none">
<path d="M1860 6863 c-203 -21 -450 -116 -566 -217 -104 -91 -181 -240 -219
-421 -9 -43 -18 -151 -22 -239 -5 -140 -2 -176 17 -276 12 -63 35 -157 52
-208 30 -95 122 -308 161 -372 53 -88 322 -419 499 -612 l89 -97 -73 -37
c-179 -90 -487 -289 -662 -428 -60 -47 -115 -86 -121 -86 -7 0 -24 44 -40 103
-47 171 -69 207 -124 207 -31 0 -61 -35 -61 -71 0 -17 18 -96 40 -176 22 -81
40 -159 40 -173 0 -20 -15 -42 -56 -81 -139 -134 -351 -369 -400 -445 -30 -45
-86 -147 -124 -226 -103 -212 -113 -273 -108 -623 5 -264 6 -273 36 -387 46
-173 68 -231 134 -363 100 -200 147 -270 281 -420 224 -253 432 -411 797 -608
239 -129 707 -293 990 -346 107 -20 367 -50 530 -62 177 -12 859 -6 1175 11
262 14 573 64 820 130 177 48 579 192 715 257 154 74 376 201 450 258 278 214
589 648 702 976 29 86 32 107 36 251 8 278 -26 480 -124 740 -78 209 -163 372
-252 487 -216 277 -473 527 -732 711 -41 29 -90 64 -108 78 l-33 24 23 25 c13
14 75 64 138 111 138 103 420 381 541 534 162 205 237 348 291 555 42 165 48
282 18 410 -31 135 -74 251 -120 322 -101 157 -322 342 -491 412 -181 75 -430
102 -734 80 -241 -17 -390 -61 -716 -211 -244 -112 -273 -135 -604 -478 -49
-51 -96 -91 -104 -90 -8 2 -75 82 -148 178 -230 302 -429 484 -673 611 -285
149 -513 232 -754 275 -74 13 -310 17 -406 7z m450 -259 c124 -18 230 -52 397
-127 147 -66 271 -146 453 -291 177 -142 219 -183 358 -354 207 -253 205 -250
205 -282 0 -19 -24 -69 -67 -140 -37 -60 -80 -138 -95 -172 -44 -98 -107 -292
-131 -408 -51 -238 -42 -229 -226 -237 -117 -5 -131 -4 -152 13 -14 12 -44 80
-86 194 -169 466 -351 765 -646 1061 -133 134 -225 209 -255 209 -28 0 -65
-40 -65 -71 0 -21 25 -50 129 -148 289 -272 470 -531 626 -896 54 -127 138
-366 130 -373 -4 -4 -202 -43 -365 -72 -71 -13 -191 -13 -224 0 -52 19 -408
364 -490 474 -24 32 -70 104 -102 160 -32 55 -106 175 -165 266 -128 198 -172
282 -198 385 -85 322 -24 622 145 721 63 37 221 73 415 94 181 20 234 19 409
-6z m3302 -229 c32 -8 126 -42 211 -75 153 -60 155 -61 258 -153 122 -109 181
-191 245 -341 l46 -108 1 -157 c0 -189 -11 -240 -88 -396 -76 -154 -159 -260
-390 -491 -201 -201 -358 -331 -452 -375 -67 -31 -175 -31 -263 -2 -36 13
-108 34 -160 47 -142 36 -514 147 -524 157 -18 16 170 278 333 463 145 165
320 316 516 446 142 94 170 135 125 180 -32 32 -70 25 -163 -34 -324 -204
-631 -510 -878 -878 -43 -64 -83 -119 -89 -123 -5 -3 -66 6 -136 20 -87 18
-194 30 -346 39 -169 11 -224 18 -235 29 -13 13 -14 27 -3 104 47 335 163 623
370 920 158 227 420 462 629 568 82 41 249 98 361 124 190 44 528 64 632 36z
m-1856 -2128 c34 -9 133 -41 220 -72 393 -139 560 -259 883 -635 198 -230 285
-369 366 -585 101 -270 148 -591 126 -861 -36 -447 -179 -792 -473 -1142 -75
-90 -194 -196 -265 -238 -58 -34 -251 -107 -383 -144 -119 -35 -344 -60 -527
-60 -95 0 -113 2 -113 15 0 9 38 87 84 173 173 325 266 565 354 917 60 239 65
290 59 578 -6 273 -13 321 -81 579 -48 182 -88 292 -157 429 -149 299 -223
395 -587 761 -180 181 -282 290 -277 298 12 19 691 8 771 -13z m1098 -48 c67
-20 76 -26 162 -114 290 -297 502 -589 660 -910 185 -376 266 -760 236 -1118
-36 -411 -170 -781 -426 -1170 -105 -159 -118 -173 -179 -190 -96 -27 -117
-30 -117 -14 0 8 41 66 92 128 127 157 237 330 293 457 96 218 147 357 173
465 26 109 27 121 27 422 0 308 0 311 -29 425 -58 234 -95 339 -180 509 -205
409 -337 596 -661 941 -129 138 -150 164 -140 180 8 13 6 13 89 -11z m421
-168 c95 -45 105 -53 176 -137 294 -351 471 -668 590 -1053 97 -313 117 -708
53 -1036 -54 -281 -173 -579 -337 -845 -50 -82 -55 -87 -132 -127 -44 -23 -81
-40 -83 -38 -2 1 25 45 58 96 120 184 262 496 325 714 84 289 105 615 60 915
-72 479 -313 955 -724 1433 -55 64 -101 119 -101 122 0 10 17 4 115 -44z
m-3265 7 c92 -34 454 -266 566 -362 l37 -32 -52 -58 c-46 -53 -51 -64 -51
-107 0 -57 18 -79 66 -79 29 0 38 5 52 32 9 18 34 50 54 71 l37 39 31 -19 c51
-30 341 -332 396 -413 68 -99 213 -379 264 -510 46 -119 82 -244 106 -375 13
-74 15 -126 10 -290 -3 -110 -12 -235 -20 -277 -18 -97 -140 -461 -200 -597
-88 -201 -276 -444 -388 -502 -37 -20 -62 -24 -180 -27 -209 -6 -373 22 -718
125 -271 81 -393 136 -640 285 -170 103 -277 181 -450 326 -194 163 -288 272
-378 442 -50 93 -136 324 -168 449 -27 105 -32 275 -14 451 15 138 33 201 95
327 54 110 150 239 282 379 171 183 678 571 873 669 179 90 258 101 390 53z
m3712 -285 c95 -73 184 -159 221 -216 85 -127 201 -376 268 -572 93 -276 124
-468 124 -790 -1 -258 -15 -376 -70 -583 -47 -177 -168 -460 -228 -534 -20
-25 -167 -114 -167 -101 0 3 24 51 54 107 139 260 239 561 281 847 19 137 20
467 0 604 -62 442 -227 825 -544 1266 -22 30 -4 22 61 -28z m599 -591 c48 -76
146 -399 196 -647 15 -74 18 -139 18 -360 0 -257 -2 -276 -28 -400 -57 -265
-59 -272 -154 -387 -115 -141 -119 -143 -92 -78 43 107 99 292 123 408 35 166
46 285 46 491 0 198 -16 352 -56 530 -46 206 -74 287 -198 586 -17 40 -16 39
49 -28 37 -38 80 -90 96 -115z m326 -607 c27 -88 27 -95 28 -350 0 -259 0
-260 -28 -338 -15 -43 -43 -108 -63 -145 -30 -57 -34 -62 -29 -32 37 222 39
255 40 475 0 196 -4 248 -23 353 -18 101 -70 317 -96 407 -4 11 27 -47 68
-130 41 -82 87 -190 103 -240z"/>
<path d="M1002 3059 c-65 -12 -125 -49 -144 -89 -12 -22 -18 -58 -18 -97 0
-58 3 -66 36 -102 50 -56 107 -76 173 -62 94 20 120 36 143 87 28 64 21 116
-25 186 -50 74 -88 92 -165 77z"/>
<path d="M2298 3020 c-21 -4 -47 -15 -58 -25 -30 -27 -60 -97 -60 -141 0 -45
41 -123 88 -168 29 -27 34 -28 111 -25 l81 4 47 47 46 47 0 76 c0 86 -12 111
-79 157 -42 28 -110 39 -176 28z"/>
<path d="M1283 2591 c-123 -42 -193 -122 -193 -220 0 -75 29 -132 110 -212
118 -117 248 -158 471 -147 92 5 101 7 214 61 99 48 128 68 184 125 97 98 113
165 64 263 -33 63 -95 110 -180 135 -61 18 -97 16 -227 -11 -89 -19 -90 -19
-195 3 -127 26 -179 27 -248 3z m195 -141 c98 -27 227 -27 318 1 79 25 120 21
175 -16 69 -45 47 -111 -62 -181 -126 -82 -164 -94 -294 -94 -101 0 -121 3
-177 27 -129 55 -208 123 -208 179 0 31 29 65 74 85 53 24 85 24 174 -1z"/>
</g>
</svg>
